<?xml version="1.0" encoding="UTF-8" standalone="no"?>
<!-- Created with Inkscape (http://www.inkscape.org/) -->

<svg
   width="210mm"
   height="297mm"
   viewBox="0 0 210 297"
   version="1.1"
   id="svg1"
   inkscape:export-filename="public\images\logo_squared.png"
   inkscape:export-xdpi="43.421906"
   inkscape:export-ydpi="43.421906"
   inkscape:version="1.4.2 (f4327f4, 2025-05-13)"
   sodipodi:docname="publiclogo.svg"
   xmlns:inkscape="http://www.inkscape.org/namespaces/inkscape"
   xmlns:sodipodi="http://sodipodi.sourceforge.net/DTD/sodipodi-0.dtd"
   xmlns="http://www.w3.org/2000/svg"
   xmlns:svg="http://www.w3.org/2000/svg">
  <sodipodi:namedview
     id="namedview1"
     pagecolor="#ffffff"
     bordercolor="#000000"
     borderopacity="0.25"
     inkscape:showpageshadow="2"
     inkscape:pageopacity="0.0"
     inkscape:pagecheckerboard="0"
     inkscape:deskcolor="#d1d1d1"
     inkscape:document-units="mm"
     inkscape:zoom="0.79"
     inkscape:cx="396.83544"
     inkscape:cy="561.39241"
     inkscape:window-width="1920"
     inkscape:window-height="1129"
     inkscape:window-x="1912"
     inkscape:window-y="50"
     inkscape:window-maximized="1"
     inkscape:current-layer="svg1" />
  <defs
     id="defs1" />
  <g
     inkscape:label="Camada 1"
     inkscape:groupmode="layer"
     id="layer1">
    <path
       style="fill:#4c9c2e;fill-opacity:1;fill-rule:evenodd;stroke-width:22;stroke-dasharray:none"
       d="m 66.090926,123.1352 c -0.45543,-0.39197 -1.30726,-1.14338 -1.89296,-1.6698 -1.667667,-1.4989 -8.663502,-8.54795 -10.57277,-10.65319 -0.948253,-1.04559 -2.229916,-2.44359 -2.848141,-3.10666 -1.56032,-1.67352 -4.014629,-4.57934 -6.661063,-7.886473 -2.851113,-3.562923 -2.651588,-3.304313 -4.406183,-5.711083 -0.820912,-1.12606 -1.638308,-2.20098 -1.816431,-2.38872 -0.178122,-0.18774 -0.323855,-0.43615 -0.323855,-0.55202 0,-0.11587 -0.169717,-0.39868 -0.37715,-0.62846 -0.207428,-0.22978 -0.857382,-1.14514 -1.444339,-2.03413 -0.586957,-0.88899 -1.144596,-1.648673 -1.239195,-1.688173 -0.0946,-0.0395 -0.172003,-0.16491 -0.172003,-0.27866 0,-0.22695 -1.515406,-2.68748 -1.975286,-3.20723 -0.158179,-0.17876 -0.478449,-0.75062 -0.711714,-1.27077 -0.233262,-0.52016 -0.524205,-1.05424 -0.646536,-1.18684 -0.12233,-0.13261 -0.415451,-0.62755 -0.651383,-1.09987 -0.235929,-0.47232 -0.478694,-0.90725 -0.539485,-0.96652 -0.383424,-0.37382 -4.311608,-8.708863 -4.311608,-9.148608 0,-0.166733 -0.125558,-0.4313 -0.279019,-0.587931 -0.153458,-0.156631 -0.506592,-1.06063 -0.784738,-2.008883 -0.278148,-0.948254 -0.576622,-1.77259 -0.663276,-1.831859 -0.08665,-0.05926 -0.321485,-0.832498 -0.521848,-1.718297 -0.200362,-0.885801 -0.445935,-1.710137 -0.545715,-1.831858 -0.216104,-0.263615 -1.084627,-5.26001 -1.084627,-6.239566 0,-0.376298 -0.101143,-0.78532 -0.224759,-0.908939 -0.291102,-0.2911 -0.142779,-7.812802 0.194879,-9.882775 0.655206,-4.016645 0.959083,-5.612485 1.087496,-5.711079 0.07719,-0.05927 0.321556,-0.83511 0.543045,-1.724099 0.221485,-0.88899 0.484468,-1.722215 0.584406,-1.851613 0.09994,-0.129391 0.37093,-0.808259 0.602205,-1.508585 0.44128,-1.336246 2.328233,-5.156139 3.314967,-6.710727 0.318257,-0.501404 0.578647,-1.00247 0.578647,-1.113481 0,-0.111008 0.07838,-0.234161 0.174183,-0.273672 0.144534,-0.05961 1.159859,-1.478983 2.088695,-2.919892 0.239347,-0.371299 0.49634,-0.670395 2.37064,-2.759026 0.711192,-0.792518 1.627661,-1.746258 2.036601,-2.119423 0.408943,-0.373165 0.990828,-0.933028 1.293077,-1.244139 0.46369,-0.477287 1.81266,-1.572629 4.752038,-3.858581 0.296328,-0.230455 0.648129,-0.420311 0.78178,-0.4219 0.133652,-0.0016 0.370012,-0.155928 0.525246,-0.342972 0.155234,-0.187044 0.724747,-0.575832 1.265587,-0.863972 0.540835,-0.288141 1.128813,-0.621052 1.30661,-0.739804 0.177797,-0.118752 0.662702,-0.361785 1.077561,-0.5400735 0.414861,-0.178288 0.899763,-0.416566 1.077563,-0.529506 0.66629,-0.423239 3.170655,-1.476981 4.418004,-1.8589272 0.71119,-0.217772 1.341565,-0.4599348 1.400832,-0.5381398 0.05926,-0.07821 0.883599,-0.311546 1.831856,-0.518533 0.948253,-0.206987 1.823299,-0.454426 1.944547,-0.549863 0.623551,-0.490825 5.549418,-0.937413 10.339659,-0.937413 4.76036,0 9.69623,0.444197 10.33966,0.930505 0.12125,0.09164 0.99629,0.34297 1.94455,0.558516 0.948251,0.215546 1.772591,0.450822 1.831861,0.522836 0.0593,0.07201 0.83511,0.3601048 1.7241,0.640201 0.88898,0.280096 1.66483,0.574547 1.72409,0.654335 0.0593,0.07979 0.59266,0.323434 1.18532,0.541437 0.59266,0.218003 1.20276,0.494892 1.35578,0.615309 0.15302,0.120418 0.73491,0.449724 1.29308,0.7317915 2.1448,1.083861 4.08198,2.282516 4.8044,2.972787 0.18774,0.179386 0.41673,0.326157 0.50887,0.326157 0.0921,0 0.63086,0.387922 1.19715,0.862049 0.56629,0.474128 1.0923,0.86205 1.16891,0.86205 0.17641,0 6.158513,5.973603 6.158513,6.149756 0,0.07179 0.38792,0.590585 0.86205,1.152872 0.47413,0.562287 0.86205,1.132506 0.86205,1.267152 0,0.134647 0.12547,0.322366 0.27882,0.417153 0.15335,0.09479 0.73248,0.8997 1.28695,1.788687 0.55448,0.888992 1.08363,1.715023 1.17589,1.835628 0.29622,0.387205 1.99962,3.932722 1.99962,4.162076 0,0.121754 0.12567,0.349525 0.27928,0.506156 0.1536,0.156631 0.50503,1.012137 0.78094,1.901127 0.27593,0.888986 0.57488,1.713322 0.66435,1.831855 0.0895,0.118531 0.34017,0.991357 0.55711,1.939611 0.21693,0.948256 0.46184,1.772591 0.54424,1.831855 0.0824,0.05927 0.32661,1.223034 0.5427,2.586149 0.5569,3.513059 0.56286,11.812636 0.011,15.297018 -0.21552,1.360715 -0.47165,2.57297 -0.56918,2.693906 -0.0975,0.12093 -0.34586,0.995722 -0.55184,1.943978 -0.20598,0.948256 -0.44888,1.82108 -0.53977,1.93961 -0.0909,0.118534 -0.3802,0.942869 -0.64289,1.831859 -0.26268,0.888987 -0.54357,1.664832 -0.62418,1.724099 -0.0806,0.05926 -0.28379,0.544168 -0.45152,1.077561 -0.16773,0.533392 -0.51608,1.40622 -0.77411,1.939612 -0.25803,0.533392 -0.59687,1.333482 -0.75298,1.777976 -0.1561,0.444495 -0.36133,0.808173 -0.45605,0.808173 -0.0947,0 -0.17222,0.103574 -0.17222,0.230161 0,0.245253 -1.96379,4.329383 -2.1691,4.511113 -0.067,0.0593 -0.5923,0.98058 -1.16743,2.04737 -0.57513,1.06678 -1.12648,1.97194 -1.22522,2.01145 -0.0987,0.0395 -0.17952,0.16854 -0.17952,0.28674 0,0.23818 -0.65701,1.28191 -3.480013,5.528383 -1.04929,1.57838 -1.9078,2.96035 -1.9078,3.07105 0,0.1107 -0.0945,0.20127 -0.20998,0.20127 -0.11549,0 -0.35568,0.28175 -0.53375,0.62612 -0.17808,0.34436 -0.44908,0.75653 -0.60221,0.91592 -0.15314,0.1594 -0.74003,0.92019 -1.3042,1.69064 -0.56418,0.77046 -1.24124,1.66203 -1.50458,1.98126 -0.26334,0.31924 -0.64516,0.80414 -0.84849,1.077563 -0.65657,0.8829 -2.91324,3.714873 -3.50953,4.404213 -0.23706,0.27406 -0.72197,0.85327 -1.07756,1.28713 -1.01213,1.23488 -2.45266,2.85763 -6.44828,7.26391 -3.059681,3.37414 -12.265121,12.41794 -13.135931,12.90527 -0.20961,0.11731 -0.58074,-0.0582 -1.13898,-0.53867 z m 25.787731,-49.332073 1.61634,-0.517718 -0.0704,-1.495772 c -0.22812,-4.848696 -2.5853,-9.240451 -6.79545,-12.660902 -5.33613,-4.335222 -13.712801,-7.376303 -21.689581,-7.874225 -2.620763,-0.163592 -2.467567,0.08173 -1.837776,-2.942915 0.492176,-2.363574 0.675569,-8.786004 0.33481,-11.724072 -0.596824,-5.145889 -2.560304,-12.280119 -3.310874,-12.029932 -0.257911,0.08597 -1.267876,2.738744 -1.905283,5.004424 -1.359559,4.832591 -1.907448,10.215428 -1.50154,14.752223 0.146407,1.63639 0.455779,3.769011 0.687488,4.739153 0.231714,0.970148 0.421299,1.84376 0.421299,1.941362 0,0.0976 -0.654622,0.299233 -1.454711,0.448072 -3.1574,0.587364 -5.398884,1.534628 -7.704569,3.255999 -1.456851,1.087649 -3.124927,3.307562 -3.124927,4.158716 0,0.517382 0.352311,0.406945 1.238575,-0.388247 3.014954,-2.705148 7.486229,-3.352078 11.238182,-1.626008 2.06856,0.951627 3.755472,2.264939 6.380576,4.967465 4.48597,4.618257 5.60737,5.705179 7.11191,6.893195 3.82773,3.022449 7.29247,4.648144 11.637671,5.460526 2.56078,0.478764 6.63154,0.310237 8.72826,-0.361344 z M 70.185466,48.540409 c 7.69394,-1.472097 12.949921,-7.784818 13.452201,-16.156819 l 0.11517,-1.919695 -1.91756,0.129686 c -2.979561,0.201506 -5.158371,0.734642 -7.413131,1.813922 -3.82518,1.830999 -6.48911,5.194329 -7.73197,9.76199 -0.35993,1.322787 -0.88853,5.118582 -0.88853,6.380452 0,0.406913 2.23261,0.402058 4.38382,-0.0095 z"
       id="path10" />
  </g>
</svg>
